<svg width="376" height="140" viewBox="0 0 376 140" fill="none" xmlns="http://www.w3.org/2000/svg">
<rect x="1.5" y="1.5" width="373" height="137" rx="18.5" stroke="#D1D5DB" stroke-width="3" stroke-dasharray="8 8"/>
<path d="M180 30H164C162.939 30 161.922 30.4214 161.172 31.1716C160.421 31.9217 160 32.9391 160 34V54M160 54V58C160 59.0609 160.421 60.0783 161.172 60.8284C161.922 61.5786 162.939 62 164 62H188C189.061 62 190.078 61.5786 190.828 60.8284C191.579 60.0783 192 59.0609 192 58V50M160 54L169.172 44.828C169.922 44.0781 170.939 43.6569 172 43.6569C173.061 43.6569 174.078 44.0781 174.828 44.828L180 50M192 42V50M192 50L188.828 46.828C188.078 46.0781 187.061 45.6569 186 45.6569C184.939 45.6569 183.922 46.0781 183.172 46.828L180 50M180 50L184 54M188 30H196M192 26V34M180 38H180.02" stroke="#9CA3AF" stroke-width="2" stroke-linecap="round" stroke-linejoin="round"/>
<g clip-path="url(#clip0_108_874)">
<rect x="125" y="74" width="125" height="20" rx="6" fill="white"/>
<path d="M132.666 78.8182H134.207V85.5149C134.207 86.2275 134.04 86.8589 133.705 87.4091C133.371 87.956 132.9 88.3868 132.293 88.7017C131.687 89.0133 130.976 89.169 130.161 89.169C129.348 89.169 128.639 89.0133 128.033 88.7017C127.426 88.3868 126.955 87.956 126.621 87.4091C126.286 86.8589 126.119 86.2275 126.119 85.5149V78.8182H127.655V85.3906C127.655 85.8513 127.756 86.2607 127.958 86.6186C128.164 86.9766 128.454 87.2583 128.828 87.4638C129.203 87.666 129.647 87.767 130.161 87.767C130.678 87.767 131.123 87.666 131.498 87.4638C131.876 87.2583 132.164 86.9766 132.363 86.6186C132.565 86.2607 132.666 85.8513 132.666 85.3906V78.8182ZM136.322 91.8636V81.3636H137.773V82.6016H137.898C137.984 82.4425 138.108 82.2585 138.27 82.0497C138.433 81.8409 138.658 81.6586 138.947 81.5028C139.235 81.3438 139.616 81.2642 140.09 81.2642C140.706 81.2642 141.257 81.42 141.741 81.7315C142.224 82.0431 142.604 82.4922 142.879 83.0788C143.157 83.6655 143.297 84.3714 143.297 85.1967C143.297 86.022 143.159 86.7296 142.884 87.3196C142.609 87.9062 142.231 88.3587 141.751 88.6768C141.27 88.9917 140.721 89.1491 140.105 89.1491C139.641 89.1491 139.261 89.0713 138.966 88.9155C138.675 88.7597 138.446 88.5774 138.28 88.3686C138.115 88.1598 137.987 87.9742 137.898 87.8118H137.808V91.8636H136.322ZM137.778 85.1818C137.778 85.7187 137.856 86.1894 138.012 86.5938C138.168 86.9981 138.393 87.3146 138.688 87.5433C138.983 87.7687 139.344 87.8814 139.772 87.8814C140.216 87.8814 140.587 87.7637 140.885 87.5284C141.184 87.2898 141.409 86.9666 141.562 86.5589C141.717 86.1513 141.795 85.6922 141.795 85.1818C141.795 84.678 141.719 84.2256 141.567 83.8246C141.417 83.4235 141.192 83.107 140.89 82.875C140.592 82.643 140.219 82.527 139.772 82.527C139.341 82.527 138.976 82.638 138.678 82.8601C138.383 83.0821 138.159 83.392 138.007 83.7898C137.854 84.1875 137.778 84.6515 137.778 85.1818ZM146.449 78.8182V89H144.962V78.8182H146.449ZM151.665 89.1541C150.949 89.1541 150.324 88.9901 149.791 88.6619C149.257 88.3338 148.843 87.8748 148.548 87.2848C148.253 86.6948 148.105 86.0054 148.105 85.2166C148.105 84.4245 148.253 83.7318 148.548 83.1385C148.843 82.5452 149.257 82.0845 149.791 81.7564C150.324 81.4283 150.949 81.2642 151.665 81.2642C152.381 81.2642 153.006 81.4283 153.539 81.7564C154.073 82.0845 154.487 82.5452 154.782 83.1385C155.077 83.7318 155.225 84.4245 155.225 85.2166C155.225 86.0054 155.077 86.6948 154.782 87.2848C154.487 87.8748 154.073 88.3338 153.539 88.6619C153.006 88.9901 152.381 89.1541 151.665 89.1541ZM151.67 87.9062C152.134 87.9062 152.519 87.7836 152.824 87.5384C153.128 87.2931 153.354 86.9666 153.5 86.5589C153.649 86.1513 153.723 85.7022 153.723 85.2116C153.723 84.7244 153.649 84.277 153.5 83.8693C153.354 83.4583 153.128 83.1286 152.824 82.88C152.519 82.6314 152.134 82.5071 151.67 82.5071C151.203 82.5071 150.815 82.6314 150.507 82.88C150.202 83.1286 149.975 83.4583 149.826 83.8693C149.68 84.277 149.607 84.7244 149.607 85.2116C149.607 85.7022 149.68 86.1513 149.826 86.5589C149.975 86.9666 150.202 87.2931 150.507 87.5384C150.815 87.7836 151.203 87.9062 151.67 87.9062ZM159.106 89.169C158.622 89.169 158.185 89.0795 157.794 88.9006C157.403 88.7183 157.093 88.4548 156.864 88.1101C156.639 87.7654 156.526 87.3428 156.526 86.8423C156.526 86.4115 156.609 86.0568 156.775 85.7784C156.94 85.5 157.164 85.2796 157.446 85.1172C157.728 84.9548 158.042 84.8321 158.39 84.7493C158.738 84.6664 159.093 84.6035 159.454 84.5604C159.912 84.5073 160.283 84.4643 160.568 84.4311C160.853 84.3946 161.06 84.3366 161.189 84.2571C161.319 84.1776 161.383 84.0483 161.383 83.8693V83.8345C161.383 83.4003 161.261 83.0639 161.015 82.8253C160.773 82.5866 160.412 82.4673 159.932 82.4673C159.431 82.4673 159.037 82.5784 158.748 82.8004C158.463 83.0192 158.266 83.2628 158.157 83.5312L156.76 83.2131C156.925 82.7491 157.167 82.3745 157.486 82.0895C157.807 81.8011 158.177 81.5923 158.594 81.4631C159.012 81.3305 159.451 81.2642 159.912 81.2642C160.217 81.2642 160.54 81.3007 160.881 81.3736C161.226 81.4432 161.547 81.5724 161.846 81.7614C162.147 81.9503 162.394 82.2204 162.586 82.5717C162.779 82.9197 162.875 83.3722 162.875 83.929V89H161.423V87.956H161.363C161.267 88.1482 161.123 88.3371 160.931 88.5227C160.739 88.7083 160.492 88.8625 160.19 88.9851C159.889 89.1077 159.527 89.169 159.106 89.169ZM159.43 87.9759C159.84 87.9759 160.192 87.8946 160.483 87.7322C160.778 87.5698 161.002 87.3577 161.155 87.0959C161.31 86.8307 161.388 86.5473 161.388 86.2457V85.2614C161.335 85.3144 161.233 85.3641 161.08 85.4105C160.931 85.4536 160.76 85.4917 160.568 85.5249C160.376 85.5547 160.189 85.5829 160.006 85.6094C159.824 85.6326 159.671 85.6525 159.549 85.669C159.26 85.7055 158.997 85.7668 158.758 85.853C158.523 85.9392 158.334 86.0634 158.192 86.2259C158.052 86.3849 157.983 86.5971 157.983 86.8622C157.983 87.2301 158.119 87.5085 158.39 87.6974C158.662 87.883 159.009 87.9759 159.43 87.9759ZM167.713 89.1491C167.097 89.1491 166.547 88.9917 166.063 88.6768C165.582 88.3587 165.204 87.9062 164.929 87.3196C164.658 86.7296 164.522 86.022 164.522 85.1967C164.522 84.3714 164.659 83.6655 164.934 83.0788C165.213 82.4922 165.594 82.0431 166.078 81.7315C166.562 81.42 167.11 81.2642 167.723 81.2642C168.197 81.2642 168.578 81.3438 168.867 81.5028C169.158 81.6586 169.384 81.8409 169.543 82.0497C169.705 82.2585 169.831 82.4425 169.921 82.6016H170.01V78.8182H171.497V89H170.045V87.8118H169.921C169.831 87.9742 169.702 88.1598 169.533 88.3686C169.367 88.5774 169.139 88.7597 168.847 88.9155C168.555 89.0713 168.177 89.1491 167.713 89.1491ZM168.042 87.8814C168.469 87.8814 168.83 87.7687 169.125 87.5433C169.424 87.3146 169.649 86.9981 169.801 86.5938C169.957 86.1894 170.035 85.7187 170.035 85.1818C170.035 84.6515 169.959 84.1875 169.806 83.7898C169.654 83.392 169.43 83.0821 169.135 82.8601C168.84 82.638 168.476 82.527 168.042 82.527C167.594 82.527 167.221 82.643 166.923 82.875C166.625 83.107 166.399 83.4235 166.247 83.8246C166.098 84.2256 166.023 84.678 166.023 85.1818C166.023 85.6922 166.099 86.1513 166.252 86.5589C166.404 86.9666 166.63 87.2898 166.928 87.5284C167.23 87.7637 167.601 87.8814 168.042 87.8814ZM179.546 89.169C179.062 89.169 178.624 89.0795 178.233 88.9006C177.842 88.7183 177.532 88.4548 177.304 88.1101C177.078 87.7654 176.966 87.3428 176.966 86.8423C176.966 86.4115 177.048 86.0568 177.214 85.7784C177.38 85.5 177.604 85.2796 177.885 85.1172C178.167 84.9548 178.482 84.8321 178.83 84.7493C179.178 84.6664 179.533 84.6035 179.894 84.5604C180.351 84.5073 180.722 84.4643 181.007 84.4311C181.292 84.3946 181.5 84.3366 181.629 84.2571C181.758 84.1776 181.823 84.0483 181.823 83.8693V83.8345C181.823 83.4003 181.7 83.0639 181.455 82.8253C181.213 82.5866 180.852 82.4673 180.371 82.4673C179.871 82.4673 179.476 82.5784 179.188 82.8004C178.903 83.0192 178.706 83.2628 178.596 83.5312L177.199 83.2131C177.365 82.7491 177.607 82.3745 177.925 82.0895C178.247 81.8011 178.616 81.5923 179.034 81.4631C179.451 81.3305 179.891 81.2642 180.351 81.2642C180.656 81.2642 180.979 81.3007 181.321 81.3736C181.665 81.4432 181.987 81.5724 182.285 81.7614C182.587 81.9503 182.834 82.2204 183.026 82.5717C183.218 82.9197 183.314 83.3722 183.314 83.929V89H181.863V87.956H181.803C181.707 88.1482 181.563 88.3371 181.37 88.5227C181.178 88.7083 180.931 88.8625 180.63 88.9851C180.328 89.1077 179.967 89.169 179.546 89.169ZM179.869 87.9759C180.28 87.9759 180.631 87.8946 180.923 87.7322C181.218 87.5698 181.442 87.3577 181.594 87.0959C181.75 86.8307 181.828 86.5473 181.828 86.2457V85.2614C181.775 85.3144 181.672 85.3641 181.52 85.4105C181.37 85.4536 181.2 85.4917 181.007 85.5249C180.815 85.5547 180.628 85.5829 180.446 85.6094C180.263 85.6326 180.111 85.6525 179.988 85.669C179.7 85.7055 179.436 85.7668 179.198 85.853C178.962 85.9392 178.774 86.0634 178.631 86.2259C178.492 86.3849 178.422 86.5971 178.422 86.8622C178.422 87.2301 178.558 87.5085 178.83 87.6974C179.102 87.883 179.448 87.9759 179.869 87.9759ZM192.216 89.1541C191.477 89.1541 190.84 88.9867 190.307 88.652C189.777 88.3139 189.369 87.8482 189.084 87.255C188.799 86.6617 188.656 85.9822 188.656 85.2166C188.656 84.4411 188.802 83.7566 189.094 83.1634C189.385 82.5668 189.796 82.1011 190.327 81.7663C190.857 81.4316 191.482 81.2642 192.201 81.2642C192.781 81.2642 193.298 81.3719 193.752 81.5874C194.206 81.7995 194.572 82.0978 194.851 82.4822C195.133 82.8667 195.3 83.3158 195.353 83.8295H193.906C193.827 83.4716 193.644 83.1634 193.359 82.9048C193.078 82.6463 192.7 82.517 192.226 82.517C191.812 82.517 191.449 82.6264 191.137 82.8452C190.829 83.0606 190.589 83.3688 190.416 83.7699C190.244 84.1676 190.158 84.6383 190.158 85.1818C190.158 85.7386 190.242 86.2192 190.411 86.6236C190.58 87.0279 190.819 87.3411 191.127 87.5632C191.439 87.7853 191.805 87.8963 192.226 87.8963C192.508 87.8963 192.763 87.8449 192.991 87.7422C193.223 87.6361 193.417 87.4853 193.573 87.2898C193.732 87.0942 193.843 86.8589 193.906 86.5838H195.353C195.3 87.0777 195.139 87.5185 194.871 87.9062C194.602 88.294 194.243 88.599 193.792 88.821C193.344 89.0431 192.819 89.1541 192.216 89.1541ZM200.159 89.1541C199.443 89.1541 198.819 88.9901 198.285 88.6619C197.751 88.3338 197.337 87.8748 197.042 87.2848C196.747 86.6948 196.6 86.0054 196.6 85.2166C196.6 84.4245 196.747 83.7318 197.042 83.1385C197.337 82.5452 197.751 82.0845 198.285 81.7564C198.819 81.4283 199.443 81.2642 200.159 81.2642C200.875 81.2642 201.5 81.4283 202.034 81.7564C202.567 82.0845 202.981 82.5452 203.276 83.1385C203.571 83.7318 203.719 84.4245 203.719 85.2166C203.719 86.0054 203.571 86.6948 203.276 87.2848C202.981 87.8748 202.567 88.3338 202.034 88.6619C201.5 88.9901 200.875 89.1541 200.159 89.1541ZM200.164 87.9062C200.628 87.9062 201.013 87.7836 201.318 87.5384C201.623 87.2931 201.848 86.9666 201.994 86.5589C202.143 86.1513 202.218 85.7022 202.218 85.2116C202.218 84.7244 202.143 84.277 201.994 83.8693C201.848 83.4583 201.623 83.1286 201.318 82.88C201.013 82.6314 200.628 82.5071 200.164 82.5071C199.697 82.5071 199.309 82.6314 199.001 82.88C198.696 83.1286 198.469 83.4583 198.32 83.8693C198.174 84.277 198.101 84.7244 198.101 85.2116C198.101 85.7022 198.174 86.1513 198.32 86.5589C198.469 86.9666 198.696 87.2931 199.001 87.5384C199.309 87.7836 199.697 87.9062 200.164 87.9062ZM211.651 81.3636L208.882 89H207.291L204.517 81.3636H206.113L208.047 87.2401H208.126L210.055 81.3636H211.651ZM216.08 89.1541C215.327 89.1541 214.679 88.9934 214.136 88.6719C213.595 88.3471 213.178 87.8913 212.883 87.3047C212.591 86.7147 212.445 86.0237 212.445 85.2315C212.445 84.4493 212.591 83.7599 212.883 83.1634C213.178 82.5668 213.589 82.1011 214.116 81.7663C214.646 81.4316 215.266 81.2642 215.975 81.2642C216.406 81.2642 216.824 81.3355 217.228 81.478C217.632 81.6205 217.995 81.8442 218.317 82.1491C218.638 82.4541 218.892 82.8501 219.077 83.3374C219.263 83.8213 219.356 84.4096 219.356 85.1023V85.6293H213.286V84.5156H217.899C217.899 84.1245 217.82 83.7782 217.661 83.4766C217.501 83.1716 217.278 82.9313 216.989 82.7557C216.704 82.58 216.37 82.4922 215.985 82.4922C215.567 82.4922 215.203 82.5949 214.891 82.8004C214.583 83.0026 214.344 83.2678 214.175 83.5959C214.01 83.9207 213.927 84.2737 213.927 84.6548V85.5249C213.927 86.0353 214.016 86.4695 214.195 86.8274C214.378 87.1854 214.631 87.4588 214.956 87.6477C215.281 87.8333 215.66 87.9261 216.094 87.9261C216.376 87.9261 216.633 87.8864 216.865 87.8068C217.097 87.724 217.298 87.6013 217.467 87.4389C217.636 87.2765 217.765 87.076 217.854 86.8374L219.261 87.0909C219.149 87.5052 218.946 87.8681 218.655 88.1797C218.366 88.4879 218.004 88.7282 217.566 88.9006C217.132 89.0696 216.636 89.1541 216.08 89.1541ZM221.005 89V81.3636H222.442V82.5767H222.521C222.661 82.1657 222.906 81.8426 223.257 81.6072C223.612 81.3686 224.013 81.2493 224.46 81.2493C224.553 81.2493 224.663 81.2526 224.789 81.2592C224.918 81.2659 225.019 81.2741 225.092 81.2841V82.706C225.032 82.6894 224.926 82.6712 224.774 82.6513C224.621 82.6281 224.469 82.6165 224.316 82.6165C223.965 82.6165 223.652 82.6911 223.377 82.8402C223.105 82.986 222.889 83.1899 222.73 83.4517C222.571 83.7102 222.492 84.0052 222.492 84.3366V89H221.005ZM233.718 81.3636V82.5568H229.402V81.3636H233.718ZM230.585 89V80.4787C230.585 80.0014 230.69 79.6053 230.899 79.2905C231.107 78.9723 231.384 78.7353 231.729 78.5795C232.074 78.4205 232.448 78.3409 232.852 78.3409C233.151 78.3409 233.406 78.3658 233.618 78.4155C233.83 78.4619 233.988 78.505 234.09 78.5447L233.742 79.7479C233.673 79.728 233.583 79.7048 233.474 79.6783C233.365 79.6484 233.232 79.6335 233.076 79.6335C232.715 79.6335 232.456 79.723 232.301 79.902C232.148 80.081 232.072 80.3395 232.072 80.6776V89H230.585ZM235.251 89V81.3636H236.738V89H235.251ZM236.002 80.1854C235.743 80.1854 235.521 80.0992 235.336 79.9268C235.153 79.7512 235.062 79.5424 235.062 79.3004C235.062 79.0552 235.153 78.8464 235.336 78.674C235.521 78.4983 235.743 78.4105 236.002 78.4105C236.26 78.4105 236.481 78.4983 236.663 78.674C236.849 78.8464 236.942 79.0552 236.942 79.3004C236.942 79.5424 236.849 79.7512 236.663 79.9268C236.481 80.0992 236.26 80.1854 236.002 80.1854ZM240.224 78.8182V89H238.738V78.8182H240.224ZM245.515 89.1541C244.763 89.1541 244.115 88.9934 243.571 88.6719C243.031 88.3471 242.613 87.8913 242.318 87.3047C242.027 86.7147 241.881 86.0237 241.881 85.2315C241.881 84.4493 242.027 83.7599 242.318 83.1634C242.613 82.5668 243.024 82.1011 243.551 81.7663C244.082 81.4316 244.701 81.2642 245.411 81.2642C245.842 81.2642 246.259 81.3355 246.664 81.478C247.068 81.6205 247.431 81.8442 247.752 82.1491C248.074 82.4541 248.327 82.8501 248.513 83.3374C248.699 83.8213 248.791 84.4096 248.791 85.1023V85.6293H242.721V84.5156H247.335C247.335 84.1245 247.255 83.7782 247.096 83.4766C246.937 83.1716 246.713 82.9313 246.425 82.7557C246.14 82.58 245.805 82.4922 245.421 82.4922C245.003 82.4922 244.638 82.5949 244.327 82.8004C244.019 83.0026 243.78 83.2678 243.611 83.5959C243.445 83.9207 243.362 84.2737 243.362 84.6548V85.5249C243.362 86.0353 243.452 86.4695 243.631 86.8274C243.813 87.1854 244.067 87.4588 244.392 87.6477C244.716 87.8333 245.096 87.9261 245.53 87.9261C245.812 87.9261 246.069 87.8864 246.301 87.8068C246.533 87.724 246.733 87.6013 246.902 87.4389C247.071 87.2765 247.2 87.076 247.29 86.8374L248.697 87.0909C248.584 87.5052 248.382 87.8681 248.09 88.1797C247.802 88.4879 247.439 88.7282 247.002 88.9006C246.567 89.0696 246.072 89.1541 245.515 89.1541Z" fill="#0EA5E9"/>
</g>
<path d="M126.668 110V101.273H129.617C130.302 101.273 130.861 101.396 131.296 101.643C131.733 101.888 132.057 102.219 132.268 102.636C132.478 103.054 132.583 103.52 132.583 104.034C132.583 104.548 132.478 105.016 132.268 105.436C132.06 105.857 131.739 106.192 131.305 106.442C130.87 106.689 130.313 106.812 129.634 106.812H127.52V105.875H129.6C130.069 105.875 130.445 105.794 130.729 105.632C131.013 105.47 131.219 105.251 131.347 104.976C131.478 104.697 131.543 104.384 131.543 104.034C131.543 103.685 131.478 103.372 131.347 103.097C131.219 102.821 131.012 102.605 130.725 102.449C130.438 102.29 130.057 102.21 129.583 102.21H127.725V110H126.668ZM141.206 101.273V110H140.183L135.427 103.148H135.342V110H134.285V101.273H135.308L140.081 108.142H140.166V101.273H141.206ZM149.286 104C149.193 103.713 149.069 103.456 148.916 103.229C148.765 102.999 148.585 102.803 148.374 102.641C148.167 102.479 147.931 102.355 147.667 102.27C147.403 102.185 147.113 102.142 146.798 102.142C146.281 102.142 145.811 102.276 145.387 102.543C144.964 102.81 144.627 103.203 144.377 103.723C144.127 104.243 144.002 104.881 144.002 105.636C144.002 106.392 144.129 107.03 144.382 107.55C144.634 108.07 144.977 108.463 145.409 108.73C145.84 108.997 146.326 109.131 146.866 109.131C147.366 109.131 147.806 109.024 148.187 108.811C148.57 108.595 148.869 108.291 149.082 107.899C149.298 107.504 149.406 107.04 149.406 106.506L149.73 106.574H147.105V105.636H150.428V106.574C150.428 107.293 150.275 107.918 149.968 108.449C149.664 108.98 149.244 109.392 148.707 109.685C148.173 109.974 147.559 110.119 146.866 110.119C146.093 110.119 145.414 109.938 144.829 109.574C144.247 109.21 143.792 108.693 143.465 108.023C143.142 107.352 142.98 106.557 142.98 105.636C142.98 104.946 143.072 104.325 143.257 103.774C143.444 103.22 143.708 102.749 144.049 102.359C144.39 101.97 144.794 101.672 145.259 101.464C145.725 101.257 146.238 101.153 146.798 101.153C147.258 101.153 147.687 101.223 148.085 101.362C148.485 101.499 148.842 101.693 149.154 101.946C149.47 102.196 149.732 102.496 149.943 102.845C150.153 103.192 150.298 103.577 150.377 104H149.286ZM153.602 108.807L153.534 109.267C153.486 109.591 153.412 109.938 153.312 110.307C153.216 110.676 153.115 111.024 153.01 111.351C152.905 111.678 152.818 111.938 152.75 112.131H151.983C152.02 111.949 152.068 111.709 152.128 111.411C152.187 111.112 152.247 110.778 152.307 110.409C152.369 110.043 152.42 109.668 152.46 109.284L152.511 108.807H153.602ZM162.318 101.273H163.374V107.511C163.374 108.068 163.272 108.541 163.068 108.93C162.863 109.32 162.575 109.615 162.203 109.817C161.83 110.018 161.392 110.119 160.886 110.119C160.409 110.119 159.984 110.033 159.612 109.859C159.24 109.683 158.947 109.433 158.734 109.109C158.521 108.786 158.414 108.401 158.414 107.955H159.454C159.454 108.202 159.515 108.418 159.637 108.602C159.762 108.784 159.933 108.926 160.149 109.028C160.365 109.131 160.61 109.182 160.886 109.182C161.19 109.182 161.448 109.118 161.661 108.99C161.874 108.862 162.036 108.675 162.147 108.428C162.261 108.178 162.318 107.872 162.318 107.511V101.273ZM165.492 110V101.273H168.441C169.126 101.273 169.686 101.396 170.12 101.643C170.558 101.888 170.882 102.219 171.092 102.636C171.302 103.054 171.407 103.52 171.407 104.034C171.407 104.548 171.302 105.016 171.092 105.436C170.884 105.857 170.563 106.192 170.129 106.442C169.694 106.689 169.137 106.812 168.458 106.812H166.345V105.875H168.424C168.893 105.875 169.269 105.794 169.553 105.632C169.838 105.47 170.044 105.251 170.171 104.976C170.302 104.697 170.367 104.384 170.367 104.034C170.367 103.685 170.302 103.372 170.171 103.097C170.044 102.821 169.836 102.605 169.549 102.449C169.262 102.29 168.882 102.21 168.407 102.21H166.549V110H165.492ZM179.075 104C178.982 103.713 178.858 103.456 178.705 103.229C178.554 102.999 178.374 102.803 178.164 102.641C177.956 102.479 177.72 102.355 177.456 102.27C177.192 102.185 176.902 102.142 176.587 102.142C176.07 102.142 175.6 102.276 175.176 102.543C174.753 102.81 174.416 103.203 174.166 103.723C173.916 104.243 173.791 104.881 173.791 105.636C173.791 106.392 173.918 107.03 174.171 107.55C174.423 108.07 174.766 108.463 175.198 108.73C175.629 108.997 176.115 109.131 176.655 109.131C177.155 109.131 177.595 109.024 177.976 108.811C178.36 108.595 178.658 108.291 178.871 107.899C179.087 107.504 179.195 107.04 179.195 106.506L179.519 106.574H176.894V105.636H180.218V106.574C180.218 107.293 180.064 107.918 179.757 108.449C179.453 108.98 179.033 109.392 178.496 109.685C177.962 109.974 177.348 110.119 176.655 110.119C175.882 110.119 175.203 109.938 174.618 109.574C174.036 109.21 173.581 108.693 173.254 108.023C172.931 107.352 172.769 106.557 172.769 105.636C172.769 104.946 172.861 104.325 173.046 103.774C173.233 103.22 173.497 102.749 173.838 102.359C174.179 101.97 174.583 101.672 175.048 101.464C175.514 101.257 176.027 101.153 176.587 101.153C177.047 101.153 177.476 101.223 177.874 101.362C178.274 101.499 178.631 101.693 178.943 101.946C179.259 102.196 179.521 102.496 179.732 102.845C179.942 103.192 180.087 103.577 180.166 104H179.075ZM189.391 107.324V103.455H190.397V110H189.391V108.892H189.323C189.17 109.224 188.931 109.507 188.607 109.74C188.283 109.97 187.874 110.085 187.38 110.085C186.971 110.085 186.607 109.996 186.289 109.817C185.971 109.635 185.721 109.362 185.539 108.999C185.357 108.632 185.266 108.17 185.266 107.614V103.455H186.272V107.545C186.272 108.023 186.405 108.403 186.672 108.688C186.942 108.972 187.286 109.114 187.704 109.114C187.954 109.114 188.208 109.05 188.466 108.922C188.728 108.794 188.947 108.598 189.123 108.334C189.302 108.07 189.391 107.733 189.391 107.324ZM192.239 112.455V103.455H193.21V104.494H193.33C193.404 104.381 193.506 104.236 193.637 104.06C193.77 103.881 193.96 103.722 194.208 103.582C194.458 103.44 194.796 103.369 195.222 103.369C195.773 103.369 196.259 103.507 196.679 103.783C197.1 104.058 197.428 104.449 197.664 104.955C197.899 105.46 198.017 106.057 198.017 106.744C198.017 107.438 197.899 108.038 197.664 108.547C197.428 109.053 197.101 109.445 196.683 109.723C196.266 109.999 195.784 110.136 195.239 110.136C194.818 110.136 194.482 110.067 194.229 109.928C193.976 109.786 193.781 109.625 193.645 109.446C193.509 109.264 193.404 109.114 193.33 108.994H193.244V112.455H192.239ZM193.227 106.727C193.227 107.222 193.3 107.658 193.445 108.036C193.59 108.411 193.801 108.705 194.08 108.918C194.358 109.128 194.699 109.233 195.102 109.233C195.523 109.233 195.874 109.122 196.155 108.901C196.439 108.676 196.652 108.375 196.794 107.997C196.939 107.616 197.012 107.193 197.012 106.727C197.012 106.267 196.941 105.852 196.798 105.483C196.659 105.111 196.448 104.817 196.164 104.601C195.882 104.382 195.529 104.273 195.102 104.273C194.693 104.273 194.35 104.376 194.071 104.584C193.793 104.788 193.583 105.075 193.441 105.445C193.298 105.811 193.227 106.239 193.227 106.727ZM205.773 103.455V104.307H202.381V103.455H205.773ZM203.369 101.886H204.375V108.125C204.375 108.409 204.416 108.622 204.499 108.764C204.584 108.903 204.692 108.997 204.823 109.045C204.956 109.091 205.097 109.114 205.244 109.114C205.355 109.114 205.446 109.108 205.517 109.097C205.588 109.082 205.645 109.071 205.688 109.062L205.892 109.966C205.824 109.991 205.729 110.017 205.607 110.043C205.485 110.071 205.33 110.085 205.142 110.085C204.858 110.085 204.58 110.024 204.307 109.902C204.037 109.78 203.813 109.594 203.634 109.344C203.458 109.094 203.369 108.778 203.369 108.398V101.886ZM209.874 110.136C209.284 110.136 208.765 109.996 208.319 109.714C207.876 109.433 207.529 109.04 207.279 108.534C207.032 108.028 206.909 107.437 206.909 106.761C206.909 106.08 207.032 105.484 207.279 104.976C207.529 104.467 207.876 104.072 208.319 103.791C208.765 103.51 209.284 103.369 209.874 103.369C210.465 103.369 210.982 103.51 211.426 103.791C211.872 104.072 212.218 104.467 212.465 104.976C212.715 105.484 212.84 106.08 212.84 106.761C212.84 107.437 212.715 108.028 212.465 108.534C212.218 109.04 211.872 109.433 211.426 109.714C210.982 109.996 210.465 110.136 209.874 110.136ZM209.874 109.233C210.323 109.233 210.693 109.118 210.982 108.888C211.272 108.658 211.487 108.355 211.626 107.98C211.765 107.605 211.835 107.199 211.835 106.761C211.835 106.324 211.765 105.916 211.626 105.538C211.487 105.161 211.272 104.855 210.982 104.622C210.693 104.389 210.323 104.273 209.874 104.273C209.426 104.273 209.056 104.389 208.767 104.622C208.477 104.855 208.262 105.161 208.123 105.538C207.984 105.916 207.914 106.324 207.914 106.761C207.914 107.199 207.984 107.605 208.123 107.98C208.262 108.355 208.477 108.658 208.767 108.888C209.056 109.118 209.426 109.233 209.874 109.233ZM220.802 101.273V110H219.745V102.381H219.694L217.563 103.795V102.722L219.745 101.273H220.802ZM226.158 110.119C225.516 110.119 224.969 109.945 224.518 109.595C224.066 109.243 223.721 108.733 223.482 108.065C223.243 107.395 223.124 106.585 223.124 105.636C223.124 104.693 223.243 103.888 223.482 103.22C223.724 102.55 224.07 102.038 224.522 101.686C224.976 101.331 225.522 101.153 226.158 101.153C226.795 101.153 227.339 101.331 227.79 101.686C228.245 102.038 228.591 102.55 228.83 103.22C229.072 103.888 229.192 104.693 229.192 105.636C229.192 106.585 229.073 107.395 228.834 108.065C228.596 108.733 228.251 109.243 227.799 109.595C227.347 109.945 226.8 110.119 226.158 110.119ZM226.158 109.182C226.795 109.182 227.289 108.875 227.641 108.261C227.993 107.648 228.17 106.773 228.17 105.636C228.17 104.881 228.089 104.237 227.927 103.706C227.768 103.175 227.537 102.77 227.236 102.491C226.938 102.213 226.579 102.074 226.158 102.074C225.528 102.074 225.035 102.385 224.68 103.007C224.324 103.626 224.147 104.503 224.147 105.636C224.147 106.392 224.226 107.034 224.385 107.562C224.545 108.091 224.773 108.493 225.072 108.768C225.373 109.044 225.735 109.182 226.158 109.182ZM230.965 101.273H232.226L235.192 108.517H235.295L238.26 101.273H239.522V110H238.533V103.369H238.448L235.721 110H234.766L232.039 103.369H231.954V110H230.965V101.273ZM241.641 110V101.273H244.692C245.3 101.273 245.801 101.378 246.196 101.588C246.591 101.795 246.885 102.075 247.078 102.428C247.271 102.777 247.368 103.165 247.368 103.591C247.368 103.966 247.301 104.276 247.168 104.52C247.037 104.764 246.864 104.957 246.648 105.099C246.435 105.241 246.203 105.347 245.953 105.415V105.5C246.22 105.517 246.489 105.611 246.759 105.781C247.029 105.952 247.254 106.196 247.436 106.514C247.618 106.832 247.709 107.222 247.709 107.682C247.709 108.119 247.61 108.513 247.411 108.862C247.212 109.212 246.898 109.489 246.469 109.693C246.04 109.898 245.482 110 244.794 110H241.641ZM242.698 109.062H244.794C245.485 109.062 245.975 108.929 246.264 108.662C246.557 108.392 246.703 108.065 246.703 107.682C246.703 107.386 246.628 107.114 246.477 106.864C246.327 106.611 246.112 106.409 245.834 106.259C245.556 106.105 245.226 106.028 244.845 106.028H242.698V109.062ZM242.698 105.108H244.658C244.976 105.108 245.263 105.045 245.519 104.92C245.777 104.795 245.982 104.619 246.132 104.392C246.286 104.165 246.362 103.898 246.362 103.591C246.362 103.207 246.229 102.882 245.962 102.615C245.695 102.345 245.271 102.21 244.692 102.21H242.698V105.108Z" fill="#6B7280"/>
<defs>
<clipPath id="clip0_108_874">
<rect x="125" y="74" width="125" height="20" rx="6" fill="white"/>
</clipPath>
</defs>
</svg>
